# xmcd CD database file
#
# Track frame offsets:
#	150
#	21763
#	48087
#	74115
#	96954
#	112907
#	132431
#	156352
#	178963
#	202280
#	231477
#	248386
#	265308
#	289665
#	311017
#	338744
#
# Disc length: 4788 seconds
#
# Revision: 0
# Processed by: cddbd v1.5.1PL0 Copyright (c) Steve Scherf et al.
# Submitted via: CDex 1.51
#
DISCID=f312b210
DTITLE=Johnny Guitar Watson - Ain't That A Bitch
DYEAR=1900
DGENRE=Blues
TTITLE0=I Need It
TTITLE1=I Want To Ta-Ta You Baby
TTITLE2=Superman Lover
TTITLE3=Ain't That A Bitch
TTITLE4=Since I Met You Baby
TTITLE5=We're No Exeption
TTITLE6=Won't You Forgive Me Baby
TTITLE7=A Real Mother For Ya
TTITLE8=Funk Beyond The Call Of Duty
TTITLE9=Lone Ranger
TTITLE10=Gangster Of Love
TTITLE11=Love That Will Not Die
TTITLE12=Booty Ooty
TTITLE13=Love Jones
TTITLE14=What The Hell Is This ?
TTITLE15=Telefone Bill
EXTD=
EXTT0=
EXTT1=
EXTT2=
EXTT3=
EXTT4=
EXTT5=
EXTT6=
EXTT7=
EXTT8=
EXTT9=
EXTT10=
EXTT11=
EXTT12=
EXTT13=
EXTT14=
EXTT15=
PLAYORDER=
